<svg id="Layer_1" data-name="Layer 1" xmlns="http://www.w3.org/2000/svg" viewBox="0 0 1280 1280"><defs><style>.cls-1{fill:#09c;}</style></defs><path class="cls-1" d="M768,1152a128,128,0,0,1-128,128H128A128,128,0,0,1,0,1152V640a128,128,0,0,1,256,0V960a64,64,0,0,0,64,64H640A128,128,0,0,1,768,1152Z"/><path class="cls-1" d="M768,512V768a128,128,0,0,1-256,0V512a128,128,0,0,1,256,0Z"/><path class="cls-1" d="M1280,128V640a128,128,0,0,1-256,0V320a64,64,0,0,0-64-64H640A128,128,0,0,1,640,0h512A128,128,0,0,1,1280,128Z"/></svg>